<svg width="18" height="16" viewBox="0 0 18 16" fill="none" xmlns="http://www.w3.org/2000/svg">
<path d="M16.3969 6.39678C16.0594 6.39678 15.75 6.67803 15.75 7.04365V12.3312C15.75 13.428 14.9344 14.2999 13.9219 14.2999H3.12188C2.08125 14.2999 1.29375 13.428 1.29375 12.3312V7.01553C1.29375 6.67803 1.0125 6.36865 0.646875 6.36865C0.28125 6.36865 0 6.6499 0 7.01553V12.303C0 14.0749 1.37813 15.5374 3.09375 15.5374H13.9219C15.6375 15.5374 17.0156 14.103 17.0156 12.303V7.01553C17.0438 6.67803 16.7344 6.39678 16.3969 6.39678Z" fill="#DEE4EE"/>
<path d="M8.07178 10.5874C8.18428 10.6999 8.35303 10.7843 8.52178 10.7843C8.69053 10.7843 8.83115 10.728 8.97178 10.5874L12.403 7.18428C12.6562 6.93115 12.6562 6.5374 12.403 6.28428C12.1499 6.03115 11.7562 6.03115 11.503 6.28428L9.16865 8.59053V1.10928C9.16865 0.771777 8.8874 0.462402 8.52178 0.462402C8.18428 0.462402 7.8749 0.743652 7.8749 1.10928V8.64678L5.54053 6.3124C5.2874 6.05928 4.89365 6.05928 4.64053 6.3124C4.3874 6.56553 4.3874 6.95928 4.64053 7.2124L8.07178 10.5874Z" fill="#DEE4EE"/>
</svg>
