<svg width="18" height="18" viewBox="0 0 18 18" fill="none" xmlns="http://www.w3.org/2000/svg">
<path d="M13.753 2.4749H11.5874V1.99678C11.5874 1.15303 10.9124 0.478027 10.0687 0.478027H7.90303C7.05928 0.478027 6.38428 1.15303 6.38428 1.99678V2.4749H4.21865C3.40303 2.4749 2.72803 3.1499 2.72803 3.96553V4.80928C2.72803 5.42803 3.09365 5.93428 3.62803 6.15928L4.07803 15.4687C4.13428 16.6218 5.09053 17.5218 6.24365 17.5218H11.6999C12.853 17.5218 13.8093 16.6218 13.8655 15.4687L14.3437 6.13115C14.878 5.90615 15.2437 5.37178 15.2437 4.78115V3.9374C15.2437 3.1499 14.5687 2.4749 13.753 2.4749ZM7.67803 1.99678C7.67803 1.85615 7.79053 1.74365 7.93115 1.74365H10.0968C10.2374 1.74365 10.3499 1.85615 10.3499 1.99678V2.4749H7.70615V1.99678H7.67803ZM4.02178 3.96553C4.02178 3.85303 4.10615 3.74053 4.24678 3.74053H13.753C13.8655 3.74053 13.978 3.8249 13.978 3.96553V4.80928C13.978 4.92178 13.8937 5.03428 13.753 5.03428H4.24678C4.13428 5.03428 4.02178 4.9499 4.02178 4.80928V3.96553ZM11.728 16.2562H6.27178C5.79365 16.2562 5.3999 15.8905 5.37178 15.3843L4.9499 6.27178H13.078L12.6562 15.3843C12.5999 15.8624 12.2062 16.2562 11.728 16.2562Z" fill="#64748B"/>
<path d="M8.9999 9.1123C8.6624 9.1123 8.35303 9.39355 8.35303 9.75918V13.3311C8.35303 13.6686 8.63428 13.9779 8.9999 13.9779C9.3374 13.9779 9.64678 13.6967 9.64678 13.3311V9.75918C9.64678 9.39355 9.3374 9.1123 8.9999 9.1123Z" fill="#64748B"/>
<path d="M11.2497 9.67498C10.8841 9.64686 10.6028 9.89998 10.5747 10.2656L10.4059 12.7406C10.3778 13.0781 10.6309 13.3875 10.9966 13.4156C11.0247 13.4156 11.0247 13.4156 11.0528 13.4156C11.3903 13.4156 11.6716 13.1625 11.6716 12.825L11.8403 10.35C11.8403 9.98436 11.5872 9.70311 11.2497 9.67498Z" fill="#64748B"/>
<path d="M6.72196 9.67498C6.38446 9.70311 6.10321 10.0125 6.13134 10.35L6.32821 12.825C6.35634 13.1625 6.63759 13.4156 6.94696 13.4156C6.97509 13.4156 6.97509 13.4156 7.00321 13.4156C7.34071 13.3875 7.62196 13.0781 7.59384 12.7406L7.39696 10.2656C7.39696 9.89998 7.08759 9.64686 6.72196 9.67498Z" fill="#64748B"/>
</svg>
